inDegrees=yes
name=ik_S40_A01_T01
DataType=double
version=3
OpenSimVersion=4.3-2021-08-27-4bc7ad9
endheader
time	pelvis_tilt	pelvis_list	pelvis_rotation	pelvis_tx	pelvis_ty	pelvis_tz	hip_flexion_r	hip_adduction_r	hip_rotation_r	knee_angle_r	knee_angle_r_beta	ankle_angle_r	subtalar_angle_r	mtp_angle_r	hip_flexion_l	hip_adduction_l	hip_rotation_l	knee_angle_l	knee_angle_l_beta	ankle_angle_l	subtalar_angle_l	mtp_angle_l	lumbar_extension	lumbar_bending	lumbar_rotation	arm_flex_r	arm_add_r	arm_rot_r	elbow_flex_r	pro_sup_r	wrist_flex_r	wrist_dev_r	arm_flex_l	arm_add_l	arm_rot_l	elbow_flex_l	pro_sup_l	wrist_flex_l	wrist_dev_l
27.23999999999951	-1.789440988702419	-0.2248160621091734	-67.27166197143136	0	0.9399999999999999	0	2.841425112096947	-2.60030451687683	-22.0796883325653	6.821276659459873	0.1190537368970148	0	0	0	10.21995696345501	-1.074564226448966	0.1905180154357815	8.868763731049327	0.1547891276882676	0	0	0	0	0	0	43.75917694761131	-43.75917694761131	4.989890163736812	84.85662640156421	85.01011011015244	0	0	43.75917694761131	-43.75917694761131	4.989890163736812	84.85662640156421	85.01011011015078	0	0
27.25999999999951	-1.859973140299343	-0.2277710702193776	-66.64664685292887	0	0.9399999999999999	0	2.587638651330094	-2.463062350114228	-22.00180253530659	6.757550928262166	0.1179415130693739	0	0	0	10.05279628464342	-1.015591720456967	1.536994981077968	8.672822214759085	0.1513693030876528	0	0	0	0	0	0	43.75942135346519	-43.75942135346519	4.989894147814526	84.85668290296307	85.01010612607487	0	0	43.75942135346519	-43.75942135346519	4.989894147814526	84.85668290296307	85.01010612607321	0	0
27.27999999999951	-1.965439947361392	-0.2387521191254349	-65.96889021177518	0	0.9399999999999999	0	2.256358327909805	-2.262896627092734	-20.44967660724434	6.775307640572909	0.1182514261635258	0	0	0	9.925837171279564	-0.8818438769560435	2.782969528281027	8.468535357296895	0.1478038248063852	0	0	0	0	0	0	43.76165635875681	-43.76165635875681	4.989926175467775	84.85713711237523	85.01007409842272	0	0	43.76165635875681	-43.76165635875681	4.989926175467775	84.85713711237523	85.01007409842104	0	0
27.29999999999951	-2.089910457578296	-0.311477621807871	-65.1845404561799	0	0.9399999999999999	0	2.03411535032046	-2.224515489581472	-19.72890587998409	7.018558784047227	0.1224969595263938	0	0	0	9.824314089036523	-0.8218013949562678	3.689371182128435	8.567457181754747	0.1495303363452546	0	0	0	0	0	0	43.76397452822424	-43.76397452822424	4.989958959274165	84.85760204534728	85.01004131461745	0	0	43.76397452822424	-43.76397452822424	4.989958959274165	84.85760204534728	85.01004131461579	0	0
27.31999999999951	-2.154529629915084	-0.3857128691457489	-64.73105102391689	0	0.9399999999999999	0	1.49021318774371	-2.075460493498097	-20.22394045197471	6.858413201588752	0.1197018918299693	0	0	0	9.653421586174693	-0.7695456200120966	3.820646174850422	8.629102299734321	0.1506062466217785	0	0	0	0	0	0	43.76408909874124	-43.76408909874124	4.989960826276976	84.8576285228099	85.01003944761474	0	0	43.76408909874124	-43.76408909874124	4.989960826276976	84.8576285228099	85.01003944761308	0	0
27.33999999999951	-2.282209227554367	-0.5195816357149028	-63.74896258592305	0	0.9399999999999999	0	0.8298297892842532	-1.837781778136199	-21.42988407071914	6.199508837596991	0.1082018412225539	0	0	0	9.514213915178356	-0.7683260844133275	4.238202183601286	8.738512774991008	0.1525158196511795	0	0	0	0	0	0	43.76440842964116	-43.76440842964116	4.989966047279798	84.85770256603499	85.01003422661215	0	0	43.76440842964116	-43.76440842964116	4.989966047279798	84.85770256603499	85.01003422661049	0	0
27.35999999999951	-2.495281947622583	-0.6772412718274495	-62.05128587410461	0	0.9399999999999999	0	0.3334964620641582	-1.523601210249978	-23.14470962916405	5.76428592918021	0.1006057684905754	0	0	0	9.39132051758622	-0.692867025821041	4.672811209322411	9.061765622542724	0.1581576461574042	0	0	0	0	0	0	43.76487342932822	-43.76487342932822	4.989973638308254	84.8578102204915	85.01002663558398	0	0	43.76487342932822	-43.76487342932822	4.989973638308254	84.8578102204915	85.01002663558232	0	0
27.37999999999951	-2.577703548012367	-0.6820719828019117	-61.4578171429833	0	0.9399999999999999	0	0.0447260448274415	-1.396916625489804	-23.32934915718628	5.704514554828734	0.0995625612097	0	0	0	9.431489660511547	-0.6685377225643435	5.252946236150004	9.120789295193504	0.1591878035817797	0	0	0	0	0	0	43.76496705038119	-43.76496705038119	4.989975161643193	84.85783182412432	85.0100251122491	0	0	43.76496705038119	-43.76496705038119	4.989975161643193	84.85783182412432	85.01002511224742	0	0
27.3999999999995	-2.717465932532755	-0.6883019541405504	-60.23021108023227	0	0.9399999999999999	0	-0.1181748056619307	-1.226067591352835	-23.74509457272902	5.971098161797719	0.1042153228831513	0	0	0	9.497407176978585	-0.5876573986558996	6.468851842771439	9.28613520196012	0.1620736340595527	0	0	0	0	0	0	43.76512720912717	-43.76512720912717	4.989977774809138	84.85786888352416	85.01002249908323	0	0	43.76512720912717	-43.76512720912717	4.989977774809138	84.85786888352416	85.01002249908157	0	0
27.4199999999995	-2.816303030536315	-0.6702250619277984	-58.99654101246265	0	0.9399999999999999	0	-0.1768690809296913	-1.130544271019998	-23.94926682814654	6.346730446955096	0.1107713430359377	0	0	0	9.52645698508476	-0.3992048248300507	7.322706730053806	9.514908793445658	0.1660664864725878	0	0	0	0	0	0	43.7652740075963	-43.7652740075963	4.989980171402652	84.85790287153695	85.01002010248978	0	0	43.7652740075963	-43.7652740075963	4.989980171402652	84.85790287153695	85.01002010248811	0	0
